<svg width="18" height="19" viewBox="0 0 18 19" fill="none" xmlns="http://www.w3.org/2000/svg">
<path d="M9 0C4.1211 0 0 4.31962 0 9.43355C0 14.5475 4.1211 18.8671 9 18.8671C13.8789 18.8671 18 14.5475 18 9.43355C18 4.31962 13.8789 0 9 0ZM9 4.71678C10.5543 4.71678 11.7 5.91673 11.7 7.54684C11.7 9.17696 10.5543 10.3769 9 10.3769C7.4466 10.3769 6.3 9.17696 6.3 7.54684C6.3 5.91673 7.4466 4.71678 9 4.71678ZM4.4046 13.9352C5.2119 12.69 6.5583 11.8599 8.1 11.8599H9.9C11.4426 11.8599 12.7881 12.69 13.5954 13.9352C12.4452 15.2258 10.8135 16.037 9 16.037C7.1865 16.037 5.5548 15.2258 4.4046 13.9352Z" fill="black"/>
</svg>
